<?xml version="1.0" encoding="utf-8" standalone="no"?>
<!DOCTYPE svg PUBLIC "-//W3C//DTD SVG 1.1//EN"
  "http://www.w3.org/Graphics/SVG/1.1/DTD/svg11.dtd">
<!-- Created with matplotlib (https://matplotlib.org/) -->
<svg height="151.272pt" version="1.1" viewBox="0 0 245.088 151.272" width="245.088pt" xmlns="http://www.w3.org/2000/svg" xmlns:xlink="http://www.w3.org/1999/xlink">
 <defs>
  <style type="text/css">
*{stroke-linecap:butt;stroke-linejoin:round;}
  </style>
 </defs>
 <g id="figure_1">
  <g id="patch_1">
   <path d="M 0 151.272 
L 245.088 151.272 
L 245.088 0 
L 0 0 
z
" style="fill:#ffffff;"/>
  </g>
  <g id="axes_1">
   <g id="patch_2">
    <path d="M 48.72 117.852 
L 228.754376 117.852 
L 228.754376 11.52 
L 48.72 11.52 
z
" style="fill:#ffffff;"/>
   </g>
   <g id="PolyCollection_1">
    <defs>
     <path d="M 50.485043 -33.42 
L 50.485043 -63.800166 
L 51.174513 -64.542846 
L 51.863983 -65.285082 
L 52.553453 -66.026431 
L 53.242922 -66.766449 
L 53.932392 -67.504694 
L 54.621862 -68.240725 
L 55.311332 -68.974102 
L 56.000802 -69.704386 
L 56.690272 -70.431142 
L 57.379742 -71.153935 
L 58.069212 -71.872332 
L 58.758682 -72.585904 
L 59.448151 -73.294226 
L 60.137621 -73.996873 
L 60.827091 -74.693426 
L 61.516561 -75.383467 
L 62.206031 -76.066586 
L 62.895501 -76.742374 
L 63.584971 -77.410426 
L 64.274441 -78.070343 
L 64.96391 -78.721731 
L 65.65338 -79.364201 
L 66.34285 -79.997368 
L 67.03232 -80.620855 
L 67.72179 -81.234288 
L 68.41126 -81.837301 
L 69.10073 -82.429534 
L 69.7902 -83.010632 
L 70.47967 -83.580249 
L 71.169139 -84.138043 
L 71.858609 -84.683681 
L 72.548079 -85.216838 
L 73.237549 -85.737194 
L 73.927019 -86.244439 
L 74.616489 -86.738269 
L 75.305959 -87.21839 
L 75.995429 -87.684514 
L 76.684899 -88.136362 
L 77.374368 -88.573665 
L 78.063838 -88.996162 
L 78.753308 -89.403599 
L 79.442778 -89.795733 
L 80.132248 -90.172331 
L 80.821718 -90.533166 
L 81.511188 -90.878023 
L 82.200658 -91.206696 
L 82.890128 -91.518989 
L 83.579597 -91.814714 
L 84.269067 -92.093696 
L 84.958537 -92.355767 
L 85.648007 -92.600771 
L 86.337477 -92.828561 
L 87.026947 -93.039002 
L 87.716417 -93.231967 
L 88.405887 -93.40734 
L 89.095356 -93.565019 
L 89.784826 -93.704907 
L 90.474296 -93.826921 
L 91.163766 -93.930989 
L 91.853236 -94.017049 
L 92.542706 -94.085048 
L 93.232176 -94.134946 
L 93.921646 -94.166714 
L 94.611116 -94.180332 
L 95.300585 -94.175793 
L 95.990055 -94.153098 
L 96.679525 -94.112262 
L 97.368995 -94.053309 
L 98.058465 -93.976274 
L 98.747935 -93.881203 
L 99.437405 -93.768153 
L 100.126875 -93.637192 
L 100.816345 -93.488398 
L 101.505814 -93.321859 
L 102.195284 -93.137676 
L 102.884754 -92.935958 
L 103.574224 -92.716827 
L 104.263694 -92.480412 
L 104.953164 -92.226856 
L 105.642634 -91.956309 
L 106.332104 -91.668934 
L 107.021574 -91.364902 
L 107.711043 -91.044395 
L 108.400513 -90.707605 
L 109.089983 -90.354732 
L 109.779453 -89.985989 
L 110.468923 -89.601594 
L 111.158393 -89.201778 
L 111.847863 -88.78678 
L 112.537333 -88.356848 
L 113.226802 -87.912239 
L 113.916272 -87.453219 
L 114.605742 -86.980061 
L 115.295212 -86.49305 
L 115.984682 -85.992475 
L 116.674152 -85.478636 
L 117.363622 -84.95184 
L 118.053092 -84.412402 
L 118.742562 -83.860644 
L 119.432031 -83.296897 
L 120.121501 -82.721497 
L 120.810971 -82.134788 
L 121.500441 -81.53712 
L 122.189911 -80.928852 
L 122.879381 -80.310345 
L 123.568851 -79.681971 
L 124.258321 -79.044105 
L 124.947791 -78.397128 
L 125.63726 -77.741426 
L 126.32673 -77.077392 
L 127.0162 -76.405422 
L 127.70567 -75.725918 
L 128.39514 -75.039286 
L 129.08461 -74.345937 
L 129.77408 -73.646285 
L 130.46355 -72.940748 
L 131.153019 -72.229748 
L 131.842489 -71.513709 
L 132.531959 -70.793061 
L 133.221429 -70.068233 
L 133.910899 -69.339658 
L 134.600369 -68.607773 
L 135.289839 -67.873014 
L 135.979309 -67.135821 
L 136.668779 -66.396634 
L 137.358248 -65.655895 
L 138.047718 -64.914047 
L 138.737188 -64.171534 
L 139.426658 -63.428798 
L 140.116128 -62.686285 
L 140.805598 -61.944437 
L 141.495068 -61.203698 
L 142.184538 -60.464512 
L 142.874008 -59.727318 
L 143.563477 -58.99256 
L 144.252947 -58.260674 
L 144.942417 -57.5321 
L 145.631887 -56.807271 
L 146.321357 -56.086623 
L 147.010827 -55.370584 
L 147.700297 -54.659584 
L 148.389767 -53.954047 
L 149.079237 -53.254395 
L 149.768706 -52.561046 
L 150.458176 -51.874414 
L 151.147646 -51.194911 
L 151.837116 -50.522941 
L 152.526586 -49.858906 
L 153.216056 -49.203205 
L 153.905526 -48.556227 
L 154.594996 -47.918361 
L 155.284465 -47.289987 
L 155.973935 -46.671481 
L 156.663405 -46.063212 
L 157.352875 -45.465545 
L 158.042345 -44.878835 
L 158.731815 -44.303435 
L 159.421285 -43.739688 
L 160.110755 -43.18793 
L 160.800225 -42.648492 
L 161.489694 -42.121697 
L 162.179164 -41.607858 
L 162.868634 -41.107283 
L 163.558104 -40.620271 
L 164.247574 -40.147113 
L 164.937044 -39.688093 
L 165.626514 -39.243484 
L 166.315984 -38.813552 
L 167.005454 -38.398554 
L 167.694923 -37.998738 
L 168.384393 -37.614344 
L 169.073863 -37.2456 
L 169.763333 -36.892727 
L 170.452803 -36.555937 
L 171.142273 -36.23543 
L 171.831743 -35.931398 
L 172.521213 -35.644023 
L 173.210683 -35.373477 
L 173.900152 -35.11992 
L 174.589622 -34.883505 
L 175.279092 -34.664374 
L 175.968562 -34.462656 
L 176.658032 -34.278473 
L 177.347502 -34.111935 
L 178.036972 -33.96314 
L 178.726442 -33.832179 
L 179.415911 -33.719129 
L 180.105381 -33.624059 
L 180.794851 -33.547024 
L 181.484321 -33.48807 
L 182.173791 -33.447234 
L 182.863261 -33.42454 
L 183.552731 -33.42 
L 184.242201 -33.433618 
L 184.931671 -33.465386 
L 185.62114 -33.515284 
L 186.31061 -33.583283 
L 187.00008 -33.669343 
L 187.68955 -33.773411 
L 188.37902 -33.895425 
L 189.06849 -34.035314 
L 189.75796 -34.192992 
L 190.44743 -34.368366 
L 191.1369 -34.56133 
L 191.826369 -34.771771 
L 192.515839 -34.999561 
L 193.205309 -35.244565 
L 193.894779 -35.506636 
L 194.584249 -35.785618 
L 195.273719 -36.081343 
L 195.963189 -36.393636 
L 196.652659 -36.722309 
L 197.342128 -37.067166 
L 198.031598 -37.428001 
L 198.721068 -37.804599 
L 199.410538 -38.196733 
L 200.100008 -38.60417 
L 200.789478 -39.026667 
L 201.478948 -39.46397 
L 202.168418 -39.915819 
L 202.857888 -40.381942 
L 203.547357 -40.862063 
L 204.236827 -41.355893 
L 204.926297 -41.863138 
L 205.615767 -42.383494 
L 206.305237 -42.916651 
L 206.994707 -43.46229 
L 207.684177 -44.020084 
L 208.373647 -44.5897 
L 209.063117 -45.170798 
L 209.752586 -45.763031 
L 210.442056 -46.366044 
L 211.131526 -46.979477 
L 211.820996 -47.602964 
L 212.510466 -48.236131 
L 213.199936 -48.878601 
L 213.889406 -49.529989 
L 214.578876 -50.189907 
L 215.268346 -50.857959 
L 215.957815 -51.533746 
L 216.647285 -52.216865 
L 217.336755 -52.906907 
L 218.026225 -53.603459 
L 218.715695 -54.306106 
L 219.405165 -55.014428 
L 220.094635 -55.728 
L 220.784105 -56.446398 
L 221.473574 -57.16919 
L 222.163044 -57.895946 
L 222.852514 -58.62623 
L 223.541984 -59.359607 
L 224.231454 -60.095638 
L 224.920924 -60.833883 
L 225.610394 -61.573901 
L 226.299864 -62.31525 
L 226.989334 -63.057486 
L 226.989334 -33.42 
L 226.989334 -33.42 
L 226.299864 -33.42 
L 225.610394 -33.42 
L 224.920924 -33.42 
L 224.231454 -33.42 
L 223.541984 -33.42 
L 222.852514 -33.42 
L 222.163044 -33.42 
L 221.473574 -33.42 
L 220.784105 -33.42 
L 220.094635 -33.42 
L 219.405165 -33.42 
L 218.715695 -33.42 
L 218.026225 -33.42 
L 217.336755 -33.42 
L 216.647285 -33.42 
L 215.957815 -33.42 
L 215.268346 -33.42 
L 214.578876 -33.42 
L 213.889406 -33.42 
L 213.199936 -33.42 
L 212.510466 -33.42 
L 211.820996 -33.42 
L 211.131526 -33.42 
L 210.442056 -33.42 
L 209.752586 -33.42 
L 209.063117 -33.42 
L 208.373647 -33.42 
L 207.684177 -33.42 
L 206.994707 -33.42 
L 206.305237 -33.42 
L 205.615767 -33.42 
L 204.926297 -33.42 
L 204.236827 -33.42 
L 203.547357 -33.42 
L 202.857888 -33.42 
L 202.168418 -33.42 
L 201.478948 -33.42 
L 200.789478 -33.42 
L 200.100008 -33.42 
L 199.410538 -33.42 
L 198.721068 -33.42 
L 198.031598 -33.42 
L 197.342128 -33.42 
L 196.652659 -33.42 
L 195.963189 -33.42 
L 195.273719 -33.42 
L 194.584249 -33.42 
L 193.894779 -33.42 
L 193.205309 -33.42 
L 192.515839 -33.42 
L 191.826369 -33.42 
L 191.1369 -33.42 
L 190.44743 -33.42 
L 189.75796 -33.42 
L 189.06849 -33.42 
L 188.37902 -33.42 
L 187.68955 -33.42 
L 187.00008 -33.42 
L 186.31061 -33.42 
L 185.62114 -33.42 
L 184.931671 -33.42 
L 184.242201 -33.42 
L 183.552731 -33.42 
L 182.863261 -33.42 
L 182.173791 -33.42 
L 181.484321 -33.42 
L 180.794851 -33.42 
L 180.105381 -33.42 
L 179.415911 -33.42 
L 178.726442 -33.42 
L 178.036972 -33.42 
L 177.347502 -33.42 
L 176.658032 -33.42 
L 175.968562 -33.42 
L 175.279092 -33.42 
L 174.589622 -33.42 
L 173.900152 -33.42 
L 173.210683 -33.42 
L 172.521213 -33.42 
L 171.831743 -33.42 
L 171.142273 -33.42 
L 170.452803 -33.42 
L 169.763333 -33.42 
L 169.073863 -33.42 
L 168.384393 -33.42 
L 167.694923 -33.42 
L 167.005454 -33.42 
L 166.315984 -33.42 
L 165.626514 -33.42 
L 164.937044 -33.42 
L 164.247574 -33.42 
L 163.558104 -33.42 
L 162.868634 -33.42 
L 162.179164 -33.42 
L 161.489694 -33.42 
L 160.800225 -33.42 
L 160.110755 -33.42 
L 159.421285 -33.42 
L 158.731815 -33.42 
L 158.042345 -33.42 
L 157.352875 -33.42 
L 156.663405 -33.42 
L 155.973935 -33.42 
L 155.284465 -33.42 
L 154.594996 -33.42 
L 153.905526 -33.42 
L 153.216056 -33.42 
L 152.526586 -33.42 
L 151.837116 -33.42 
L 151.147646 -33.42 
L 150.458176 -33.42 
L 149.768706 -33.42 
L 149.079237 -33.42 
L 148.389767 -33.42 
L 147.700297 -33.42 
L 147.010827 -33.42 
L 146.321357 -33.42 
L 145.631887 -33.42 
L 144.942417 -33.42 
L 144.252947 -33.42 
L 143.563477 -33.42 
L 142.874008 -33.42 
L 142.184538 -33.42 
L 141.495068 -33.42 
L 140.805598 -33.42 
L 140.116128 -33.42 
L 139.426658 -33.42 
L 138.737188 -33.42 
L 138.047718 -33.42 
L 137.358248 -33.42 
L 136.668779 -33.42 
L 135.979309 -33.42 
L 135.289839 -33.42 
L 134.600369 -33.42 
L 133.910899 -33.42 
L 133.221429 -33.42 
L 132.531959 -33.42 
L 131.842489 -33.42 
L 131.153019 -33.42 
L 130.46355 -33.42 
L 129.77408 -33.42 
L 129.08461 -33.42 
L 128.39514 -33.42 
L 127.70567 -33.42 
L 127.0162 -33.42 
L 126.32673 -33.42 
L 125.63726 -33.42 
L 124.947791 -33.42 
L 124.258321 -33.42 
L 123.568851 -33.42 
L 122.879381 -33.42 
L 122.189911 -33.42 
L 121.500441 -33.42 
L 120.810971 -33.42 
L 120.121501 -33.42 
L 119.432031 -33.42 
L 118.742562 -33.42 
L 118.053092 -33.42 
L 117.363622 -33.42 
L 116.674152 -33.42 
L 115.984682 -33.42 
L 115.295212 -33.42 
L 114.605742 -33.42 
L 113.916272 -33.42 
L 113.226802 -33.42 
L 112.537333 -33.42 
L 111.847863 -33.42 
L 111.158393 -33.42 
L 110.468923 -33.42 
L 109.779453 -33.42 
L 109.089983 -33.42 
L 108.400513 -33.42 
L 107.711043 -33.42 
L 107.021574 -33.42 
L 106.332104 -33.42 
L 105.642634 -33.42 
L 104.953164 -33.42 
L 104.263694 -33.42 
L 103.574224 -33.42 
L 102.884754 -33.42 
L 102.195284 -33.42 
L 101.505814 -33.42 
L 100.816345 -33.42 
L 100.126875 -33.42 
L 99.437405 -33.42 
L 98.747935 -33.42 
L 98.058465 -33.42 
L 97.368995 -33.42 
L 96.679525 -33.42 
L 95.990055 -33.42 
L 95.300585 -33.42 
L 94.611116 -33.42 
L 93.921646 -33.42 
L 93.232176 -33.42 
L 92.542706 -33.42 
L 91.853236 -33.42 
L 91.163766 -33.42 
L 90.474296 -33.42 
L 89.784826 -33.42 
L 89.095356 -33.42 
L 88.405887 -33.42 
L 87.716417 -33.42 
L 87.026947 -33.42 
L 86.337477 -33.42 
L 85.648007 -33.42 
L 84.958537 -33.42 
L 84.269067 -33.42 
L 83.579597 -33.42 
L 82.890128 -33.42 
L 82.200658 -33.42 
L 81.511188 -33.42 
L 80.821718 -33.42 
L 80.132248 -33.42 
L 79.442778 -33.42 
L 78.753308 -33.42 
L 78.063838 -33.42 
L 77.374368 -33.42 
L 76.684899 -33.42 
L 75.995429 -33.42 
L 75.305959 -33.42 
L 74.616489 -33.42 
L 73.927019 -33.42 
L 73.237549 -33.42 
L 72.548079 -33.42 
L 71.858609 -33.42 
L 71.169139 -33.42 
L 70.47967 -33.42 
L 69.7902 -33.42 
L 69.10073 -33.42 
L 68.41126 -33.42 
L 67.72179 -33.42 
L 67.03232 -33.42 
L 66.34285 -33.42 
L 65.65338 -33.42 
L 64.96391 -33.42 
L 64.274441 -33.42 
L 63.584971 -33.42 
L 62.895501 -33.42 
L 62.206031 -33.42 
L 61.516561 -33.42 
L 60.827091 -33.42 
L 60.137621 -33.42 
L 59.448151 -33.42 
L 58.758682 -33.42 
L 58.069212 -33.42 
L 57.379742 -33.42 
L 56.690272 -33.42 
L 56.000802 -33.42 
L 55.311332 -33.42 
L 54.621862 -33.42 
L 53.932392 -33.42 
L 53.242922 -33.42 
L 52.553453 -33.42 
L 51.863983 -33.42 
L 51.174513 -33.42 
L 50.485043 -33.42 
z
" id="m5dc62431e0"/>
    </defs>
    <g clip-path="url(#p4cb704038b)">
     <use style="fill-opacity:0.3;" x="0" xlink:href="#m5dc62431e0" y="151.272"/>
    </g>
   </g>
   <g id="matplotlib.axis_1">
    <g id="xtick_1">
     <g id="line2d_1">
      <defs>
       <path d="M 0 0 
L 0 -3 
" id="md902f1299e" style="stroke:#000000;stroke-width:0.5;"/>
      </defs>
      <g>
       <use style="stroke:#000000;stroke-width:0.5;" x="50.485043" xlink:href="#md902f1299e" y="117.852"/>
      </g>
     </g>
     <g id="text_1">
      <!-- 0 -->
      <defs>
       <path d="M 50.703125 34.09375 
Q 50.703125 16.703125 44.75 7.59375 
Q 38.796875 -1.5 27.5 -1.5 
Q 16.09375 -1.5 10.1875 7.640625 
Q 4.296875 16.796875 4.296875 34.6875 
Q 4.296875 52.59375 10.140625 61.75 
Q 16 70.90625 27.5 70.90625 
Q 50.703125 70.90625 50.703125 34.09375 
z
M 41.703125 34.90625 
Q 41.703125 63.09375 27.5 63.09375 
Q 13.296875 63.09375 13.296875 34.59375 
Q 13.296875 5.796875 27.296875 5.796875 
Q 34.703125 5.796875 38.203125 12.84375 
Q 41.703125 19.90625 41.703125 34.90625 
z
" id="TeXGyreHeros-Regular-48"/>
      </defs>
      <g transform="translate(48.261293 127.1845)scale(0.08 -0.08)">
       <use xlink:href="#TeXGyreHeros-Regular-48"/>
      </g>
     </g>
    </g>
    <g id="xtick_2">
     <g id="line2d_2">
      <g>
       <use style="stroke:#000000;stroke-width:0.5;" x="94.783483" xlink:href="#md902f1299e" y="117.852"/>
      </g>
     </g>
     <g id="text_2">
      <!-- 500 -->
      <defs>
       <path d="M 51.296875 23.5 
Q 51.296875 12.296875 44.546875 5.390625 
Q 37.796875 -1.5 27 -1.5 
Q 17.296875 -1.5 11.4375 3.203125 
Q 5.59375 7.90625 3.5 18.203125 
L 12.296875 18.203125 
Q 15.40625 6.296875 26.796875 6.296875 
Q 34.09375 6.296875 38.1875 10.5 
Q 42.296875 14.703125 42.296875 22.296875 
Q 42.296875 30.09375 38.140625 34.5 
Q 34 38.90625 26.796875 38.90625 
Q 22.703125 38.90625 19.796875 37.453125 
Q 16.90625 36 13.796875 32.296875 
L 5.703125 32.296875 
L 11 69.40625 
L 47.59375 69.40625 
L 47.59375 60.703125 
L 18.09375 60.703125 
L 15.296875 42.40625 
Q 21.203125 46.703125 28.40625 46.703125 
Q 38.59375 46.703125 44.9375 40.34375 
Q 51.296875 34 51.296875 23.5 
z
" id="TeXGyreHeros-Regular-53"/>
      </defs>
      <g transform="translate(88.112233 127.1845)scale(0.08 -0.08)">
       <use xlink:href="#TeXGyreHeros-Regular-53"/>
       <use x="55.599991" xlink:href="#TeXGyreHeros-Regular-48"/>
       <use x="111.199982" xlink:href="#TeXGyreHeros-Regular-48"/>
      </g>
     </g>
    </g>
    <g id="xtick_3">
     <g id="line2d_3">
      <g>
       <use style="stroke:#000000;stroke-width:0.5;" x="139.081923" xlink:href="#md902f1299e" y="117.852"/>
      </g>
     </g>
     <g id="text_3">
      <!-- 1000 -->
      <defs>
       <path d="M 34.703125 0 
L 25.90625 0 
L 25.90625 50.5 
L 10.203125 50.5 
L 10.203125 56.796875 
Q 20.40625 58.09375 23.5 60.390625 
Q 26.59375 62.703125 28.90625 70.90625 
L 34.703125 70.90625 
z
" id="TeXGyreHeros-Regular-49"/>
      </defs>
      <g transform="translate(130.186923 127.1845)scale(0.08 -0.08)">
       <use xlink:href="#TeXGyreHeros-Regular-49"/>
       <use x="55.599991" xlink:href="#TeXGyreHeros-Regular-48"/>
       <use x="111.199982" xlink:href="#TeXGyreHeros-Regular-48"/>
       <use x="166.799973" xlink:href="#TeXGyreHeros-Regular-48"/>
      </g>
     </g>
    </g>
    <g id="xtick_4">
     <g id="line2d_4">
      <g>
       <use style="stroke:#000000;stroke-width:0.5;" x="183.380363" xlink:href="#md902f1299e" y="117.852"/>
      </g>
     </g>
     <g id="text_4">
      <!-- 1500 -->
      <g transform="translate(174.485363 127.1845)scale(0.08 -0.08)">
       <use xlink:href="#TeXGyreHeros-Regular-49"/>
       <use x="55.599991" xlink:href="#TeXGyreHeros-Regular-53"/>
       <use x="111.199982" xlink:href="#TeXGyreHeros-Regular-48"/>
       <use x="166.799973" xlink:href="#TeXGyreHeros-Regular-48"/>
      </g>
     </g>
    </g>
    <g id="xtick_5">
     <g id="line2d_5">
      <g>
       <use style="stroke:#000000;stroke-width:0.5;" x="227.678803" xlink:href="#md902f1299e" y="117.852"/>
      </g>
     </g>
     <g id="text_5">
      <!-- 2000 -->
      <defs>
       <path d="M 51.09375 50.09375 
Q 51.09375 36.703125 36.09375 28.703125 
L 26.09375 23.296875 
Q 19.59375 19.5 16.796875 16.296875 
Q 14 13.09375 13.296875 8.703125 
L 50.59375 8.703125 
L 50.59375 0 
L 3.40625 0 
Q 4 11.703125 8.09375 18.046875 
Q 12.203125 24.40625 23.296875 30.703125 
L 32.5 35.90625 
Q 42.09375 41.40625 42.09375 49.90625 
Q 42.09375 55.59375 38.09375 59.390625 
Q 34.09375 63.203125 28.09375 63.203125 
Q 21.40625 63.203125 17.84375 59.140625 
Q 14.296875 55.09375 13.796875 46.296875 
L 5 46.296875 
Q 5.703125 70.90625 28.40625 70.90625 
Q 38.40625 70.90625 44.75 65 
Q 51.09375 59.09375 51.09375 50.09375 
z
" id="TeXGyreHeros-Regular-50"/>
      </defs>
      <g transform="translate(218.783803 127.1845)scale(0.08 -0.08)">
       <use xlink:href="#TeXGyreHeros-Regular-50"/>
       <use x="55.599991" xlink:href="#TeXGyreHeros-Regular-48"/>
       <use x="111.199982" xlink:href="#TeXGyreHeros-Regular-48"/>
       <use x="166.799973" xlink:href="#TeXGyreHeros-Regular-48"/>
      </g>
     </g>
    </g>
    <g id="text_6">
     <!-- $x$ (km) -->
     <defs>
      <path d="M 60.015625 54.6875 
L 34.90625 27.875 
L 50.296875 0 
L 39.984375 0 
L 28.421875 21.6875 
L 8.296875 0 
L -2.59375 0 
L 24.3125 28.8125 
L 10.015625 54.6875 
L 20.3125 54.6875 
L 30.8125 34.90625 
L 49.125 54.6875 
z
" id="DejaVuSans-Oblique-120"/>
      <path id="TeXGyreHeros-Regular-32"/>
      <path d="M 29.09375 -21.203125 
L 23.59375 -21.203125 
Q 16.09375 -11.40625 11.6875 1.34375 
Q 7.296875 14.09375 7.296875 25.890625 
Q 7.296875 37.703125 11.6875 50.390625 
Q 16.09375 63.09375 23.59375 72.90625 
L 29.09375 72.90625 
Q 15.40625 50.796875 15.40625 25.90625 
Q 15.40625 1.09375 29.09375 -21.203125 
z
" id="TeXGyreHeros-Regular-40"/>
      <path d="M 50.203125 0 
L 39.90625 0 
L 22.203125 28.40625 
L 14.09375 20.40625 
L 14.09375 0 
L 5.796875 0 
L 5.796875 72.90625 
L 14.09375 72.90625 
L 14.09375 30.203125 
L 36.296875 52.40625 
L 47 52.40625 
L 28.796875 34.296875 
z
" id="TeXGyreHeros-Regular-107"/>
      <path d="M 76 0 
L 67.703125 0 
L 67.703125 36.09375 
Q 67.703125 41.09375 65.203125 43.84375 
Q 62.703125 46.59375 58.09375 46.59375 
Q 53 46.59375 49.34375 42.59375 
Q 45.703125 38.59375 45.703125 32.90625 
L 45.703125 0 
L 37.40625 0 
L 37.40625 36.09375 
Q 37.40625 41.09375 34.84375 43.84375 
Q 32.296875 46.59375 27.703125 46.59375 
Q 22.59375 46.59375 19 42.59375 
Q 15.40625 38.59375 15.40625 32.90625 
L 15.40625 0 
L 7.09375 0 
L 7.09375 52.40625 
L 14.703125 52.40625 
L 14.703125 45 
Q 18.09375 49.703125 21.84375 51.796875 
Q 25.59375 53.90625 30.796875 53.90625 
Q 40.5 53.90625 44.90625 45.90625 
Q 48.59375 50.296875 52.1875 52.09375 
Q 55.796875 53.90625 61 53.90625 
Q 68.296875 53.90625 72.140625 50.15625 
Q 76 46.40625 76 39.296875 
z
" id="TeXGyreHeros-Regular-109"/>
      <path d="M 16.796875 63.09375 
Q 25.59375 37.59375 25.59375 25.796875 
Q 25.59375 14 21.1875 1.296875 
Q 16.796875 -11.40625 9.296875 -21.203125 
L 3.796875 -21.203125 
Q 17.5 0.90625 17.5 25.796875 
Q 17.5 50.59375 3.796875 72.90625 
L 9.296875 72.90625 
Q 16.796875 63.09375 25.59375 37.59375 
z
" id="TeXGyreHeros-Regular-41"/>
     </defs>
     <g transform="translate(127.257188 138.76825)scale(0.08 -0.08)">
      <use transform="translate(0 0.09375)" xlink:href="#DejaVuSans-Oblique-120"/>
      <use transform="translate(59.179688 0.09375)" xlink:href="#TeXGyreHeros-Regular-32"/>
      <use transform="translate(86.979675 0.09375)" xlink:href="#TeXGyreHeros-Regular-40"/>
      <use transform="translate(120.279663 0.09375)" xlink:href="#TeXGyreHeros-Regular-107"/>
      <use transform="translate(170.279648 0.09375)" xlink:href="#TeXGyreHeros-Regular-109"/>
      <use transform="translate(253.579636 0.09375)" xlink:href="#TeXGyreHeros-Regular-41"/>
     </g>
    </g>
   </g>
   <g id="matplotlib.axis_2">
    <g id="ytick_1">
     <g id="line2d_6">
      <defs>
       <path d="M 0 0 
L 3 0 
" id="m1bf12fcb56" style="stroke:#000000;stroke-width:0.5;"/>
      </defs>
      <g>
       <use style="stroke:#000000;stroke-width:0.5;" x="48.72" xlink:href="#m1bf12fcb56" y="106.459792"/>
      </g>
     </g>
     <g id="text_7">
      <!-- −2500 -->
      <defs>
       <path d="M 51.59375 21.59375 
L 6.796875 21.59375 
L 6.796875 28.40625 
L 51.59375 28.40625 
z
" id="TeXGyreHeros-Regular-8722"/>
      </defs>
      <g transform="translate(22.7575 109.376042)scale(0.08 -0.08)">
       <use xlink:href="#TeXGyreHeros-Regular-8722"/>
       <use x="58.399994" xlink:href="#TeXGyreHeros-Regular-50"/>
       <use x="113.999985" xlink:href="#TeXGyreHeros-Regular-53"/>
       <use x="169.599976" xlink:href="#TeXGyreHeros-Regular-48"/>
       <use x="225.199966" xlink:href="#TeXGyreHeros-Regular-48"/>
      </g>
     </g>
    </g>
    <g id="ytick_2">
     <g id="line2d_7">
      <g>
       <use style="stroke:#000000;stroke-width:0.5;" x="48.72" xlink:href="#m1bf12fcb56" y="87.471834"/>
      </g>
     </g>
     <g id="text_8">
      <!-- −2000 -->
      <g transform="translate(22.7575 90.388084)scale(0.08 -0.08)">
       <use xlink:href="#TeXGyreHeros-Regular-8722"/>
       <use x="58.399994" xlink:href="#TeXGyreHeros-Regular-50"/>
       <use x="113.999985" xlink:href="#TeXGyreHeros-Regular-48"/>
       <use x="169.599976" xlink:href="#TeXGyreHeros-Regular-48"/>
       <use x="225.199966" xlink:href="#TeXGyreHeros-Regular-48"/>
      </g>
     </g>
    </g>
    <g id="ytick_3">
     <g id="line2d_8">
      <g>
       <use style="stroke:#000000;stroke-width:0.5;" x="48.72" xlink:href="#m1bf12fcb56" y="68.483875"/>
      </g>
     </g>
     <g id="text_9">
      <!-- −1500 -->
      <g transform="translate(22.7575 71.400125)scale(0.08 -0.08)">
       <use xlink:href="#TeXGyreHeros-Regular-8722"/>
       <use x="58.399994" xlink:href="#TeXGyreHeros-Regular-49"/>
       <use x="113.999985" xlink:href="#TeXGyreHeros-Regular-53"/>
       <use x="169.599976" xlink:href="#TeXGyreHeros-Regular-48"/>
       <use x="225.199966" xlink:href="#TeXGyreHeros-Regular-48"/>
      </g>
     </g>
    </g>
    <g id="ytick_4">
     <g id="line2d_9">
      <g>
       <use style="stroke:#000000;stroke-width:0.5;" x="48.72" xlink:href="#m1bf12fcb56" y="49.495917"/>
      </g>
     </g>
     <g id="text_10">
      <!-- −1000 -->
      <g transform="translate(22.7575 52.412167)scale(0.08 -0.08)">
       <use xlink:href="#TeXGyreHeros-Regular-8722"/>
       <use x="58.399994" xlink:href="#TeXGyreHeros-Regular-49"/>
       <use x="113.999985" xlink:href="#TeXGyreHeros-Regular-48"/>
       <use x="169.599976" xlink:href="#TeXGyreHeros-Regular-48"/>
       <use x="225.199966" xlink:href="#TeXGyreHeros-Regular-48"/>
      </g>
     </g>
    </g>
    <g id="ytick_5">
     <g id="line2d_10">
      <g>
       <use style="stroke:#000000;stroke-width:0.5;" x="48.72" xlink:href="#m1bf12fcb56" y="30.507958"/>
      </g>
     </g>
     <g id="text_11">
      <!-- −500 -->
      <g transform="translate(27.205 33.424208)scale(0.08 -0.08)">
       <use xlink:href="#TeXGyreHeros-Regular-8722"/>
       <use x="58.399994" xlink:href="#TeXGyreHeros-Regular-53"/>
       <use x="113.999985" xlink:href="#TeXGyreHeros-Regular-48"/>
       <use x="169.599976" xlink:href="#TeXGyreHeros-Regular-48"/>
      </g>
     </g>
    </g>
    <g id="ytick_6">
     <g id="line2d_11">
      <g>
       <use style="stroke:#000000;stroke-width:0.5;" x="48.72" xlink:href="#m1bf12fcb56" y="11.52"/>
      </g>
     </g>
     <g id="text_12">
      <!-- 0 -->
      <g transform="translate(40.7725 14.43625)scale(0.08 -0.08)">
       <use xlink:href="#TeXGyreHeros-Regular-48"/>
      </g>
     </g>
    </g>
    <g id="text_13">
     <!-- $z$ (m) -->
     <defs>
      <path d="M 11.625 54.6875 
L 54.296875 54.6875 
L 52.6875 46.484375 
L 11.53125 7.171875 
L 45.515625 7.171875 
L 44.09375 0 
L -0.296875 0 
L 1.3125 8.203125 
L 42.484375 47.515625 
L 10.203125 47.515625 
z
" id="DejaVuSans-Oblique-122"/>
     </defs>
     <g transform="translate(16.9975 73.926)rotate(-90)scale(0.08 -0.08)">
      <use transform="translate(0 0.09375)" xlink:href="#DejaVuSans-Oblique-122"/>
      <use transform="translate(52.490234 0.09375)" xlink:href="#TeXGyreHeros-Regular-32"/>
      <use transform="translate(80.290222 0.09375)" xlink:href="#TeXGyreHeros-Regular-40"/>
      <use transform="translate(113.59021 0.09375)" xlink:href="#TeXGyreHeros-Regular-109"/>
      <use transform="translate(196.890198 0.09375)" xlink:href="#TeXGyreHeros-Regular-41"/>
     </g>
    </g>
   </g>
   <g id="patch_3">
    <path d="M 183.380363 14.640207 
Q 183.380363 64.68603 183.380363 114.731853 
" style="fill:none;stroke:#000000;stroke-linecap:round;"/>
    <path d="M 181.780363 17.840207 
L 183.380363 14.640207 
L 184.980363 17.840207 
" style="fill:none;stroke:#000000;stroke-linecap:round;"/>
    <path d="M 184.980363 111.531853 
L 183.380363 114.731853 
L 181.780363 111.531853 
" style="fill:none;stroke:#000000;stroke-linecap:round;"/>
   </g>
   <g id="text_14">
    <!-- $H(x)$ -->
    <defs>
     <path d="M 16.890625 72.90625 
L 26.8125 72.90625 
L 21 43.015625 
L 56.78125 43.015625 
L 62.59375 72.90625 
L 72.515625 72.90625 
L 58.296875 0 
L 48.390625 0 
L 55.171875 34.71875 
L 19.390625 34.71875 
L 12.59375 0 
L 2.6875 0 
z
" id="DejaVuSans-Oblique-72"/>
     <path d="M 31 75.875 
Q 24.46875 64.65625 21.28125 53.65625 
Q 18.109375 42.671875 18.109375 31.390625 
Q 18.109375 20.125 21.3125 9.0625 
Q 24.515625 -2 31 -13.1875 
L 23.1875 -13.1875 
Q 15.875 -1.703125 12.234375 9.375 
Q 8.59375 20.453125 8.59375 31.390625 
Q 8.59375 42.28125 12.203125 53.3125 
Q 15.828125 64.359375 23.1875 75.875 
z
" id="DejaVuSans-40"/>
     <path d="M 8.015625 75.875 
L 15.828125 75.875 
Q 23.140625 64.359375 26.78125 53.3125 
Q 30.421875 42.28125 30.421875 31.390625 
Q 30.421875 20.453125 26.78125 9.375 
Q 23.140625 -1.703125 15.828125 -13.1875 
L 8.015625 -13.1875 
Q 14.5 -2 17.703125 9.0625 
Q 20.90625 20.125 20.90625 31.390625 
Q 20.90625 42.671875 17.703125 53.65625 
Q 14.5 64.65625 8.015625 75.875 
z
" id="DejaVuSans-41"/>
    </defs>
    <g transform="translate(192.240051 49.495917)scale(0.08 -0.08)">
     <use transform="translate(0 0.125)" xlink:href="#DejaVuSans-Oblique-72"/>
     <use transform="translate(75.195312 0.125)" xlink:href="#DejaVuSans-40"/>
     <use transform="translate(114.208984 0.125)" xlink:href="#DejaVuSans-Oblique-120"/>
     <use transform="translate(173.388672 0.125)" xlink:href="#DejaVuSans-41"/>
    </g>
   </g>
   <g id="text_15">
    <!-- $κ(z)$ -->
    <defs>
     <path d="M 14.65625 54.6875 
L 23.921875 54.6875 
L 19.484375 31.984375 
L 47.515625 54.6875 
L 58.453125 54.6875 
L 32.90625 34.078125 
L 51.171875 0 
L 40.1875 0 
L 25.4375 28.21875 
L 17.53125 21.921875 
L 13.28125 0 
L 4 0 
z
" id="DejaVuSans-Oblique-954"/>
    </defs>
    <g transform="translate(139.081923 41.900734)scale(0.08 -0.08)">
     <use transform="translate(0 0.125)" xlink:href="#DejaVuSans-Oblique-954"/>
     <use transform="translate(58.935547 0.125)" xlink:href="#DejaVuSans-40"/>
     <use transform="translate(97.949219 0.125)" xlink:href="#DejaVuSans-Oblique-122"/>
     <use transform="translate(150.439453 0.125)" xlink:href="#DejaVuSans-41"/>
    </g>
   </g>
   <g id="text_16">
    <!-- $\bf{u}$ -->
    <defs>
     <path d="M 7.8125 21.296875 
L 7.8125 54.6875 
L 25.390625 54.6875 
L 25.390625 49.21875 
Q 25.390625 44.78125 25.34375 38.0625 
Q 25.296875 31.34375 25.296875 29.109375 
Q 25.296875 22.515625 25.640625 19.609375 
Q 25.984375 16.703125 26.8125 15.375 
Q 27.875 13.671875 29.609375 12.734375 
Q 31.34375 11.8125 33.59375 11.8125 
Q 39.0625 11.8125 42.1875 16.015625 
Q 45.3125 20.21875 45.3125 27.6875 
L 45.3125 54.6875 
L 62.796875 54.6875 
L 62.796875 0 
L 45.3125 0 
L 45.3125 7.90625 
Q 41.359375 3.125 36.9375 0.84375 
Q 32.515625 -1.421875 27.203125 -1.421875 
Q 17.71875 -1.421875 12.765625 4.390625 
Q 7.8125 10.203125 7.8125 21.296875 
z
" id="DejaVuSans-Bold-117"/>
    </defs>
    <g transform="translate(156.801299 95.067017)scale(0.08 -0.08)">
     <use transform="translate(0 0.3125)" xlink:href="#DejaVuSans-Bold-117"/>
    </g>
   </g>
   <g id="patch_4">
    <path d="M 71.942201 26.633394 
Q 62.771598 26.666292 53.600996 26.699189 
" style="fill:none;stroke:#000000;stroke-linecap:round;"/>
    <path d="M 68.736482 25.044884 
L 71.942201 26.633394 
L 68.747961 28.244863 
" style="fill:none;stroke:#000000;stroke-linecap:round;"/>
    <path d="M 56.806715 28.2877 
L 53.600996 26.699189 
L 56.795235 25.08772 
" style="fill:none;stroke:#000000;stroke-linecap:round;"/>
   </g>
   <g id="text_17">
    <!-- periodic -->
    <defs>
     <path d="M 52.296875 25.703125 
Q 52.296875 13.203125 46.1875 5.84375 
Q 40.09375 -1.5 29.90625 -1.5 
Q 20.203125 -1.5 13.796875 6.296875 
L 13.796875 -21.796875 
L 5.5 -21.796875 
L 5.5 52.40625 
L 13.09375 52.40625 
L 13.09375 44.5 
Q 19 53.90625 29.796875 53.90625 
Q 40.296875 53.90625 46.296875 46.40625 
Q 52.296875 38.90625 52.296875 25.703125 
z
M 43.59375 25.90625 
Q 43.59375 35.203125 39.4375 40.640625 
Q 35.296875 46.09375 28.40625 46.09375 
Q 21.796875 46.09375 17.796875 40.546875 
Q 13.796875 35 13.796875 25.796875 
Q 13.796875 16.703125 17.75 11.5 
Q 21.703125 6.296875 28.40625 6.296875 
Q 35.203125 6.296875 39.390625 11.640625 
Q 43.59375 17 43.59375 25.90625 
z
" id="TeXGyreHeros-Regular-112"/>
     <path d="M 51.296875 23.796875 
L 12.703125 23.796875 
Q 12.796875 15.09375 17.046875 10.640625 
Q 21.296875 6.203125 28.09375 6.203125 
Q 38.59375 6.203125 41.796875 15.90625 
L 50.203125 15.90625 
Q 48.59375 7.90625 42.640625 3.203125 
Q 36.703125 -1.5 27.796875 -1.5 
Q 16.703125 -1.5 10.34375 5.75 
Q 4 13 4 25.890625 
Q 4 38.796875 10.5 46.34375 
Q 17 53.90625 28 53.90625 
Q 35.40625 53.90625 41.046875 50.203125 
Q 46.703125 46.5 49.203125 40.09375 
Q 51.296875 34.59375 51.296875 23.796875 
z
M 42.40625 31.203125 
Q 42.40625 37.40625 38.203125 41.796875 
Q 34 46.203125 27.90625 46.203125 
Q 21.59375 46.203125 17.5 41.890625 
Q 13.40625 37.59375 12.90625 30.59375 
L 42.296875 30.59375 
z
" id="TeXGyreHeros-Regular-101"/>
     <path d="M 32.09375 45.09375 
Q 22.703125 45 19 40.703125 
Q 15.296875 36.40625 15.296875 27.203125 
L 15.296875 0 
L 7 0 
L 7 52.40625 
L 14.59375 52.40625 
L 14.59375 42.90625 
Q 18.203125 48.796875 21.546875 51.34375 
Q 24.90625 53.90625 28.90625 53.90625 
Q 30 53.90625 32.09375 53.59375 
z
" id="TeXGyreHeros-Regular-114"/>
     <path d="M 15.296875 0 
L 7 0 
L 7 52.40625 
L 15.296875 52.40625 
z
M 16.40625 60.296875 
L 6 60.296875 
L 6 70.703125 
L 16.40625 70.703125 
z
" id="TeXGyreHeros-Regular-105"/>
     <path d="M 51 25.796875 
Q 51 12.90625 44.703125 5.703125 
Q 38.40625 -1.5 27.296875 -1.5 
Q 16.09375 -1.5 9.84375 5.75 
Q 3.59375 13 3.59375 26.203125 
Q 3.59375 39.296875 9.84375 46.59375 
Q 16.09375 53.90625 27.203125 53.90625 
Q 38.59375 53.90625 44.796875 46.59375 
Q 51 39.296875 51 25.796875 
z
M 42.296875 25.90625 
Q 42.296875 35.59375 38.34375 40.890625 
Q 34.40625 46.203125 27.296875 46.203125 
Q 20.296875 46.203125 16.296875 40.890625 
Q 12.296875 35.59375 12.296875 26.203125 
Q 12.296875 16.703125 16.296875 11.453125 
Q 20.296875 6.203125 27.296875 6.203125 
Q 34.203125 6.203125 38.25 11.453125 
Q 42.296875 16.703125 42.296875 25.90625 
z
" id="TeXGyreHeros-Regular-111"/>
     <path d="M 49.5 0 
L 42.09375 0 
L 42.09375 7.703125 
Q 38.703125 2.796875 34.75 0.640625 
Q 30.796875 -1.5 25.40625 -1.5 
Q 14.796875 -1.5 8.6875 6 
Q 2.59375 13.5 2.59375 26.703125 
Q 2.59375 39.203125 8.75 46.546875 
Q 14.90625 53.90625 25.09375 53.90625 
Q 35.90625 53.90625 41.203125 45.796875 
L 41.203125 72.90625 
L 49.5 72.90625 
z
M 41.203125 26 
Q 41.203125 35.09375 37.203125 40.59375 
Q 33.203125 46.09375 26.5 46.09375 
Q 19.59375 46.09375 15.4375 40.6875 
Q 11.296875 35.296875 11.296875 26.1875 
Q 11.296875 17.09375 15.5 11.6875 
Q 19.703125 6.296875 26.59375 6.296875 
Q 33.203125 6.296875 37.203125 11.640625 
Q 41.203125 17 41.203125 26 
z
" id="TeXGyreHeros-Regular-100"/>
     <path d="M 47.703125 18 
Q 46.90625 8.90625 41.25 3.703125 
Q 35.59375 -1.5 26.296875 -1.5 
Q 15.59375 -1.5 9.34375 5.796875 
Q 3.09375 13.09375 3.09375 25.703125 
Q 3.09375 38.703125 9.4375 46.296875 
Q 15.796875 53.90625 26.40625 53.90625 
Q 35.40625 53.90625 40.90625 49.046875 
Q 46.40625 44.203125 47.09375 34.796875 
L 38.703125 34.796875 
Q 37.90625 40.296875 34.703125 43.25 
Q 31.5 46.203125 26.296875 46.203125 
Q 19.40625 46.203125 15.59375 40.84375 
Q 11.796875 35.5 11.796875 25.703125 
Q 11.796875 16.40625 15.6875 11.296875 
Q 19.59375 6.203125 26.5 6.203125 
Q 31.90625 6.203125 35.09375 9 
Q 38.296875 11.796875 39.296875 18 
z
" id="TeXGyreHeros-Regular-99"/>
    </defs>
    <g transform="translate(77.064107 28.609163)scale(0.08 -0.08)">
     <use xlink:href="#TeXGyreHeros-Regular-112"/>
     <use x="55.599991" xlink:href="#TeXGyreHeros-Regular-101"/>
     <use x="111.199982" xlink:href="#TeXGyreHeros-Regular-114"/>
     <use x="144.499969" xlink:href="#TeXGyreHeros-Regular-105"/>
     <use x="166.699966" xlink:href="#TeXGyreHeros-Regular-111"/>
     <use x="222.299957" xlink:href="#TeXGyreHeros-Regular-100"/>
     <use x="277.899948" xlink:href="#TeXGyreHeros-Regular-105"/>
     <use x="300.099945" xlink:href="#TeXGyreHeros-Regular-99"/>
    </g>
   </g>
  </g>
 </g>
 <defs>
  <clipPath id="p4cb704038b">
   <rect height="106.332" width="180.034376" x="48.72" y="11.52"/>
  </clipPath>
 </defs>
</svg>
